<svg xmlns="http://www.w3.org/2000/svg" viewBox="0 0 512 640" x="0px" y="0px"><path d="m502,2H10C5.582,2,2,5.582,2,10v492c0,4.418,3.582,8,8,8h492c4.418,0,8-3.582,8-8V10c0-4.418-3.582-8-8-8Zm-8,90h-242.584l-26.445-66.113c-1.136-2.839-2.588-5.473-4.292-7.887h273.321v74ZM189.689,18c9.048,0,17.066,5.429,20.427,13.83l24.068,60.17H18V18h171.689Zm304.311,476H18V108h476v386Z"/><path d="m56.126,78c12.682,0,23-10.318,23-23s-10.318-23-23-23-23,10.318-23,23,10.318,23,23,23Zm0-30c3.86,0,7,3.14,7,7s-3.14,7-7,7-7-3.14-7-7,3.14-7,7-7Z"/><path d="m116.126,78c12.682,0,23-10.318,23-23s-10.318-23-23-23-23,10.318-23,23,10.318,23,23,23Zm0-30c3.86,0,7,3.14,7,7s-3.14,7-7,7-7-3.14-7-7,3.14-7,7-7Z"/><path d="m176.126,78c12.682,0,23-10.318,23-23s-10.318-23-23-23-23,10.318-23,23,10.318,23,23,23Zm0-30c3.86,0,7,3.14,7,7s-3.14,7-7,7-7-3.14-7-7,3.14-7,7-7Z"/><path d="m170.201,226.144c-1.194-.103-2.392-.155-3.589-.155-17.726,0-33.471,11.453-39.201,27.865-16.052,4.625-30.515,14.178-41.113,27.247-11.8,14.55-18.298,32.898-18.298,51.664,0,45.28,36.838,82.118,82.118,82.118h211.765c45.279,0,82.117-36.838,82.117-82.118,0-18.766-6.498-37.114-18.298-51.664-10.599-13.069-25.061-22.622-41.112-27.247-5.729-16.412-21.475-27.865-39.201-27.865-1.197,0-2.396.052-3.59.155-21.675-24.861-52.688-39.026-85.799-39.026s-64.125,14.166-85.799,39.026Zm162.093,13.565c1.884,2.342,4.918,3.43,7.865,2.818,1.713-.357,3.473-.538,5.229-.538,11.955,0,22.442,8.471,24.937,20.143.653,3.056,3.025,5.452,6.074,6.135,14.417,3.23,27.513,11.367,36.876,22.913,9.633,11.878,14.725,26.259,14.725,41.586,0,36.458-29.66,66.118-66.117,66.118h-211.765c-36.458,0-66.118-29.66-66.118-66.118,0-15.327,5.092-29.708,14.725-41.586,9.363-11.545,22.459-19.683,36.876-22.913,3.049-.683,5.421-3.079,6.074-6.135,2.495-11.671,12.982-20.143,24.937-20.143,1.757,0,3.517.181,5.231.538,2.945.615,5.98-.476,7.864-2.818,18.705-23.254,46.513-36.591,76.293-36.591s57.589,13.337,76.294,36.591Z"/><path d="m286.158,313.226c1.562,1.562,3.609,2.343,5.657,2.343s4.095-.781,5.657-2.343l9.343-9.343,9.343,9.343c1.562,1.562,3.609,2.343,5.657,2.343s4.095-.781,5.657-2.343c3.124-3.124,3.124-8.189,0-11.313l-9.343-9.343,9.343-9.343c3.124-3.124,3.124-8.189,0-11.313-3.125-3.124-8.189-3.124-11.314,0l-9.343,9.343-9.343-9.343c-3.125-3.124-8.189-3.124-11.314,0-3.124,3.124-3.124,8.189,0,11.313l9.343,9.343-9.343,9.343c-3.124,3.124-3.124,8.189,0,11.313Z"/><path d="m225.842,301.912l-9.343-9.343,9.343-9.343c3.125-3.124,3.125-8.189,0-11.313-3.124-3.124-8.189-3.124-11.313,0l-9.343,9.343-9.343-9.343c-3.124-3.124-8.189-3.124-11.313,0-3.125,3.124-3.125,8.189,0,11.313l9.343,9.343-9.343,9.343c-3.125,3.124-3.125,8.189,0,11.313,1.562,1.562,3.609,2.343,5.657,2.343s4.095-.781,5.657-2.343l9.343-9.343,9.343,9.343c1.562,1.562,3.609,2.343,5.657,2.343s4.095-.781,5.657-2.343c3.125-3.124,3.125-8.189,0-11.313Z"/><path d="m224,364.333c0,4.418,3.582,8,8,8s8-3.582,8-8c0-8.822,7.178-16,16-16s16,7.178,16,16c0,4.418,3.582,8,8,8s8-3.582,8-8c0-17.645-14.355-32-32-32s-32,14.355-32,32Z"/></svg>